<?xml version="1.0" encoding="UTF-8" standalone="no"?>
<!-- Generator: Adobe Illustrator 19.2.1, SVG Export Plug-In . SVG Version: 6.00 Build 0)  -->

<svg
   version="1.1"
   id="layer"
   x="0px"
   y="0px"
   viewBox="0 0 652 652"
   style="enable-background:new 0 0 652 652;"
   xml:space="preserve"
   sodipodi:docname="rh-logo.svg"
   inkscape:version="1.2.2 (b0a8486541, 2022-12-01)"
   xmlns:inkscape="http://www.inkscape.org/namespaces/inkscape"
   xmlns:sodipodi="http://sodipodi.sourceforge.net/DTD/sodipodi-0.dtd"
   xmlns="http://www.w3.org/2000/svg"
   xmlns:svg="http://www.w3.org/2000/svg"><defs
   id="defs11" /><sodipodi:namedview
   id="namedview9"
   pagecolor="#505050"
   bordercolor="#eeeeee"
   borderopacity="1"
   inkscape:showpageshadow="0"
   inkscape:pageopacity="0"
   inkscape:pagecheckerboard="0"
   inkscape:deskcolor="#505050"
   showgrid="false"
   inkscape:zoom="1.5751534"
   inkscape:cx="325.68257"
   inkscape:cy="326"
   inkscape:window-width="2486"
   inkscape:window-height="1376"
   inkscape:window-x="74"
   inkscape:window-y="27"
   inkscape:window-maximized="1"
   inkscape:current-layer="layer" />
<style
   type="text/css"
   id="style2">
	.st0{fill:#231815;}
</style>
<g
   id="g6"
   transform="matrix(0.81401224,0,0,0.81401224,61.620357,62.125496)"
   style="fill:#000000">
	<path
   class="st0"
   d="m 718.5,573.7 v 0 c 0.2,0 0,0 0,0 M 591.6,79.1 v 0 c -0.2,0 0,0 0,0 m -287.9,0 v 0 c -0.3,0 0,0 0,0 m -246,494.6 v 0 c 0.2,0 0,0 0,0 m 372.9,0 v 0 c 0.2,0 0,0 0,0 m 161,0 v 0 c 0,0 -0.2,0 0,0 M 58.6,333 c -3.2,-0.1 -6.2,-0.1 -8.3,-0.1 0,0 -3.7,0 -35.7,0 L 14.5,111.8 c 0.1,-24.1 5,-32.1 30.6,-32.8 11.5,0 22.1,0 23.3,0 8.8,0 14.6,0 19.7,0 0,0 0,0 0,0 100.6,0 148.3,51.3 148.3,125.7 0,70.4 -52.1,128.1 -128.6,128.1 z m 659.9,240.8 v 0 c -0.4,0 -2.1,0 -8.8,0 -26.5,0 -33.2,-6.4 -34.2,-27 V 106.1 c 1,-20.6 7.7,-27 34.2,-27 6.6,0 8.4,0 8.8,0 V 79 h 2.2 v -2.6 h -45.1 v 0 h -40.9 c 0,0 0,0 0,0 h -45 V 79 h 2 v 0.1 c 0.4,0 2.1,0 8.8,0 27.7,0 33.8,7 34.3,29.9 V 332.9 H 387.4 V 112.5 h 0.1 c 0,-24.9 4.9,-33 31.7,-33.4 h 8.8 c 1.7,0 2.3,0 2.5,0 v 0 h 4.7 v -2.6 h -72.1 -59.6 v 2.6 0 c 0.3,0 1.2,0 3.7,0 h 6.9 c 27.3,0.3 32.4,8.2 32.4,33.1 v 461.4 c -0.8,0 -2,0 -3.7,0 -35.6,0 -43,-22.8 -58.7,-56.4 C 235.5,412.8 205.9,350 81.9,335.6 H 108 C 178.2,335.3 276.7,309.9 276.7,204.1 276.7,83.7 141.5,76.6 106.6,76.5 h -0.8 C 51,76.4 0.3,76.5 -69.7,76.5 v 2.6 0 c 0.4,0 2.1,0 8.8,0 29,0 34.3,7.7 34.3,33.3 v 433.5 c -0.8,20.7 -7,27.5 -31.9,27.9 h -7.6 c -2.4,0 -3.2,0 -3.5,0 v 0 h -0.1 v 2.6 h 0.1 67.7 67.5 v -2.6 h -7.9 v 0 c -0.2,0 -0.6,0 -1.7,0 H 46.1 C 19.6,573.3 14.7,565.2 14.7,540.4 h -0.1 l 0.1,-204.9 c 13.3,0 14.3,0 29.8,0 h 5.3 c 37.6,0 71.7,8.3 96.3,28.3 68.6,55.7 72.5,212.7 187.3,212.7 h 5.4 21 78.2 v -2.6 h -7.1 v 0 c -0.3,0 -1.4,0 -5,0 h -4.3 c -28.7,-0.1 -33.9,-7.9 -33.9,-33.4 h -0.1 V 335.4 h 247.3 v 208.5 c -0.5,22.9 -6.6,29.9 -34.3,29.9 -6.6,0 -8.4,0 -8.8,0 v 0 h -2 v 2.6 h 2 63.5 65.5 v -2.6 z m 0,-494.7 c 0,0 0.2,0 0,0 z m -287.9,0 v 0 c 0,0 0.2,0 0,0"
   id="path4"
   style="fill:#000000" />
</g>
</svg>
